<?xml version="1.0" encoding="UTF-8"?>
<svg id="Layer_2" data-name="Layer 2" xmlns="http://www.w3.org/2000/svg" viewBox="0 0 257.95 158.86">
  <defs>
    <style>
      .cls-1 {
        fill: none;
        stroke: #ff4900;
        stroke-miterlimit: 10;
        stroke-width: 3.12px;
      }
    </style>
  </defs>
  <g id="Laag_1" data-name="Laag 1">
    <path class="cls-1" d="M150.3,118.84c-.68,6.27-6.73,10.55-13.17,9.59-3.68-.55-6.69-2.87-8.32-6.2l-15.23-34.07L3.46,154.94,63.06,21.51c1.86-4.13,5.93-6.75,10.45-6.68,4.61-.03,8.55,2.69,10.41,6.85l29.66,66.32,4.91-2.92,57.37-34.8L256.12,1.6c.06-.04.28-.07.28-.01v.41s-.01,131.97-.01,131.97c0,4.56-2.73,8.55-6.83,10.35-3.96,1.74-8.67,1.18-11.96-1.74l-65.18-57.77c-3.53-3.13-8.21-4.22-12.63-2.18-3.5,1.62-6.09,4.86-6.52,8.81l-2.97,27.39Z"/>
  </g>
</svg>