<?xml version="1.0" encoding="UTF-8"?>
<svg id="Layer_2" data-name="Layer 2" xmlns="http://www.w3.org/2000/svg" viewBox="0 0 644.41 44.47">
  <defs>
    <style>
      .cls-1 {
        fill: none;
        stroke-width: 4.85px;
      }

      .cls-1, .cls-2, .cls-3 {
        stroke: #fff;
        stroke-miterlimit: 10;
      }

      .cls-2 {
        stroke-width: 1.39px;
      }

      .cls-2, .cls-3, .cls-4 {
        fill: #fff;
      }

      .cls-3 {
        stroke-width: .88px;
      }
    </style>
  </defs>
  <g id="Laag_1" data-name="Laag 1">
    <g>
      <g>
        <g>
          <g>
            <path class="cls-2" d="M.69,38.77V2.17h7.77l25.23,29.86L58.55,2.17h7.77v36.6h-5.22V6.32l-24.91,30.05h-4.73L5.91,6.32v32.46H.69Z"/>
            <path class="cls-2" d="M113.32,39.53c-4.07,0-7.42-.24-10.05-.73-2.63-.48-4.68-1.38-6.15-2.68-1.48-1.3-2.51-3.18-3.1-5.62s-.88-5.63-.88-9.56V2.17h5.21v18.78c0,2.7.11,4.94.33,6.72s.62,3.2,1.22,4.27,1.45,1.86,2.57,2.38,2.56.87,4.33,1.02c1.77.16,3.95.24,6.52.24h9.83c2.59,0,4.77-.08,6.53-.24,1.77-.16,3.21-.5,4.32-1.02s1.97-1.32,2.57-2.38,1-2.49,1.22-4.27.33-4.02.33-6.72V2.17h5.22v18.78c0,3.92-.29,7.11-.88,9.56-.59,2.45-1.62,4.32-3.1,5.62-1.48,1.3-3.53,2.2-6.15,2.68-2.63.48-5.98.73-10.05.73h-9.83Z"/>
            <path class="cls-2" d="M214.45,28.19c0-1.41-.13-2.53-.38-3.34-.25-.81-.82-1.41-1.71-1.8-.89-.39-2.26-.64-4.13-.76-1.87-.12-4.42-.2-7.66-.25l-15.1-.19c-3.73-.05-6.73-.25-8.99-.6-2.26-.35-3.98-.9-5.13-1.66-1.16-.75-1.93-1.77-2.32-3.04-.39-1.27-.58-2.86-.58-4.77,0-2.08.27-3.8.8-5.15.53-1.35,1.5-2.41,2.91-3.17s3.39-1.3,5.96-1.61c2.57-.31,5.89-.46,9.97-.46h11.63c3.69,0,6.77.1,9.24.31,2.46.21,4.42.68,5.87,1.43,1.45.75,2.49,1.91,3.11,3.48.62,1.57.94,3.73.94,6.48h-5.22c0-2.13-.23-3.74-.69-4.83-.46-1.09-1.22-1.83-2.28-2.23-1.06-.4-2.49-.61-4.28-.64-1.79-.03-4.02-.05-6.68-.05h-11.35c-3.24,0-5.84.06-7.78.17-1.95.11-3.42.37-4.41.76-1,.4-1.66,1.03-2,1.91-.34.87-.5,2.07-.5,3.6,0,1.29.12,2.32.35,3.1.23.78.76,1.37,1.59,1.78.82.41,2.1.68,3.82.83,1.72.15,4.06.24,7.04.27l16.19.19c3.8.05,6.84.24,9.11.58,2.27.34,3.97.89,5.11,1.66,1.13.76,1.88,1.79,2.25,3.09.37,1.29.56,2.93.56,4.9,0,2.14-.23,3.94-.69,5.4-.46,1.45-1.35,2.62-2.68,3.49-1.32.87-3.23,1.5-5.73,1.88-2.5.38-5.79.57-9.86.57h-12.71c-3.71,0-6.83-.14-9.34-.43-2.52-.29-4.52-.86-6.02-1.73-1.49-.87-2.57-2.16-3.22-3.87s-.98-4-.98-6.86h5.21c0,2.24.21,3.97.62,5.19.42,1.22,1.15,2.1,2.19,2.63,1.04.53,2.5.85,4.37.95,1.87.1,4.26.15,7.16.15h12.44c3.24,0,5.8-.09,7.69-.27s3.28-.53,4.18-1.05c.91-.52,1.49-1.26,1.75-2.23.26-.97.39-2.25.39-3.84Z"/>
            <path class="cls-2" d="M246.03,38.77V2.17h40.96v3.81h-35.75v12.2h34.25v3.81h-34.25v12.96h36.51v3.81h-41.72Z"/>
            <path class="cls-2" d="M330.7,38.77V5.98h-20.86v-3.81h46.94v3.81h-20.86v32.79h-5.22Z"/>
            <path class="cls-2" d="M400.55,38.77V5.98h-20.86v-3.81h46.94v3.81h-20.86v32.79h-5.22Z"/>
            <path class="cls-2" d="M452.19,38.77V2.17h40.96v3.81h-35.75v12.2h34.25v3.81h-34.25v12.96h36.51v3.81h-41.72Z"/>
          </g>
          <path class="cls-1" d="M576.19,30.13c-3.09,4.52-8.3,7.49-14.19,7.49-9.49,0-17.18-7.69-17.18-17.18s7.69-17.18,17.18-17.18c6.15,0,11.55,3.23,14.59,8.1"/>
          <path class="cls-1" d="M613.7,30.13c-3.09,4.52-8.3,7.49-14.19,7.49-9.49,0-17.18-7.69-17.18-17.18s7.69-17.18,17.18-17.18c6.15,0,11.55,3.23,14.59,8.1"/>
        </g>
        <path class="cls-4" d="M630.19,9.36c0-3.68,2.89-6.65,6.46-6.65s6.44,2.97,6.44,6.65-2.87,6.65-6.44,6.65-6.46-2.97-6.46-6.65ZM642.19,9.36c0-3.16-2.49-5.73-5.54-5.73s-5.54,2.57-5.54,5.73,2.49,5.71,5.54,5.73c3.05-.02,5.54-2.56,5.54-5.73ZM634.13,12.73v-6.75h3.26c1.35,0,2.33.77,2.33,2.03,0,1.12-1.08,1.99-2.22,1.99h-.13v.06l.25.17,2.29,2.51h-1.81l-2.33-2.74h-.25v2.74h-1.39ZM635.52,8.86h1.62c.77,0,1.16-.29,1.16-.85s-.39-.89-1.16-.89h-1.62v1.74Z"/>
      </g>
      <circle class="cls-3" cx="518.73" cy="20.39" r="5.07"/>
    </g>
  </g>
</svg>